<svg id="Layer_1" data-name="Layer 1" xmlns="http://www.w3.org/2000/svg" viewBox="0 0 280 300"><defs><style>.cls-1{fill:#d2e188;}.cls-2{fill:#fff;}.cls-3,.cls-6{fill:#8cc540;}.cls-3,.cls-4,.cls-5{fill-rule:evenodd;}.cls-4{fill:#82221c;}.cls-5{fill:#e92629;}</style></defs><title>m pesa logo</title><path class="cls-1" d="M128.35,113.86a2.33,2.33,0,0,0-2.34-2.34h0a2.34,2.34,0,0,0-2.34,2.34v4.37a4.49,4.49,0,0,0-.64,0H102.58a5.33,5.33,0,0,0-5.33,5.32v59.65a5.33,5.33,0,0,0,5.33,5.32H123a5.32,5.32,0,0,0,5.32-5.32V123.51a5,5,0,0,0-.14-1.23,2.36,2.36,0,0,0,.14-.8Zm-2.84,38.47a6.89,6.89,0,0,1-6.89,6.9H107a6.9,6.9,0,0,1-6.9-6.9V132.9A6.9,6.9,0,0,1,107,126h11.63a6.89,6.89,0,0,1,6.89,6.9Z"/><rect class="cls-2" x="100.09" y="126" width="25.42" height="33.23" rx="6.82"/><path class="cls-3" d="M197.16,159.6h7V142.21H210V159.6h6.79V134.75c-.14-5.05-4-8.21-9.52-8.24-6.27-.05-9.85,2.92-10.08,8Zm7-26.62c.23-1.86.84-2.61,2.88-2.81,2.07.05,2.8,1.25,2.94,3.09v5h-5.82Z"/><path class="cls-4" d="M105.53,139.26c1.16,2.73,2.75,4,4.67,4.06a27,27,0,0,1-9.62,4.47,30.82,30.82,0,0,1-6.13-1.22C99.43,145.59,103.15,143.18,105.53,139.26Z"/><path class="cls-5" d="M118.59,132.23l14.06,7.1c-7.16,9.42-19.23,9.67-32.09,8.45C109.15,145.66,115.11,140.41,118.59,132.23Z"/><path class="cls-6" d="M92.24,129.52c-2.28-4.14-6.44-4.24-11.81-1.7-3.22-2.9-6.29-1.66-10.37.1L70,125.83H63.24v32.94h6.91V129.2l.81,0a3.75,3.75,0,0,1,3.73,3.75v25.85h7V129.2l.41,0a4,4,0,0,1,4.14,4v25.58H93V132.68a7,7,0,0,0-.56-2.75C92.37,129.77,92.3,129.63,92.24,129.52Z"/><path class="cls-6" d="M151.89,131.19a6.85,6.85,0,0,0-6.21-3.94H133.13v31.52h6.75V144.55h4.55a8.35,8.35,0,0,0,8.29-7.29c0-.26.06-.52.08-.78A11.28,11.28,0,0,0,151.89,131.19Zm-11.8,10.16V130.48c3.2-.46,5.65.43,5.82,5.47C145.8,140.45,143.41,141.58,140.09,141.35Z"/><path class="cls-6" d="M167.75,156.57l-.25,0a4.05,4.05,0,0,1-3.67-3.65,5.47,5.47,0,0,1-.08-.9l0-10h7.06l1.32,0v0h.2v-4.31h-8.58v-4.24a3.09,3.09,0,0,1,2-2.88l.15-.05a3.1,3.1,0,0,1,1-.17l6.06,0,.06-3.52-8.21,0c-5,.18-7.79,2.23-7.92,6.39V151.6a9.66,9.66,0,0,0,.86,4,13,13,0,0,0,.7,1.37,6,6,0,0,0,5.23,2.87l.79,0h9.43v-3.27Z"/><path class="cls-3" d="M189.55,159.65a10.87,10.87,0,0,1-5,1.06,9.65,9.65,0,0,1-5.65-1.5,7.4,7.4,0,0,1-2.47-3.11,14,14,0,0,1-1-3.72h6.44a7,7,0,0,0,.26,1.11,4.6,4.6,0,0,0,.54,1.16,2.62,2.62,0,0,0,1.9,1.17,2.83,2.83,0,0,0,1.08-.08,3.94,3.94,0,0,0,1.73-.93c1-1,1.21-2.55.45-4.42a5.69,5.69,0,0,0-1.64-2.26c-4.56-3.78-9.59-7.43-10.13-12.36-.32-4.18,1-6.38,3.12-7.57a11.31,11.31,0,0,1,9.34-.78,7.06,7.06,0,0,1,4.54,5.35,12.86,12.86,0,0,1,.32,1.78H187c-.31-2.21-1.69-3.38-3.24-3.21a2.3,2.3,0,0,0-2,2.67c.55,3.28,6.16,7.45,8.84,9.62.25.2,1.25,1.06,1.51,1.35C195.56,148.86,194.91,156.91,189.55,159.65Z"/></svg>